<svg xmlns="http://www.w3.org/2000/svg" xmlns:xlink="http://www.w3.org/1999/xlink" version="1.1" x="0px" y="0px" viewBox="0 0 80 100" enable-background="new 0 0 80 80" xml:space="preserve"><g><path d="M72.325,37.449c-2.443-5.969-9.197-9.402-18.065-9.178c-11.271,0.281-24.729,6.524-28.699,23.201   c-1.096,4.602-3.088,7.551-5.761,8.529c-2.195,0.804-4.903,0.254-7.244-1.471c-3.745-2.759-6.12-8.795-1.559-17.462   c4.504-8.558,15.81-14.996,20.357-15.906c0.542-0.108,0.893-0.635,0.784-1.177c-0.109-0.542-0.634-0.894-1.177-0.784   c-5.001,1-16.873,7.698-21.734,16.935C4.076,49.927,6.956,56.89,11.37,60.141c1.979,1.459,4.207,2.223,6.324,2.223   c0.966,0,1.909-0.159,2.794-0.483c2.324-0.851,5.429-3.267,7.019-9.944c4.667-19.598,21.696-21.537,26.805-21.665   c8.097-0.183,14.016,2.689,16.163,7.936c1.188,2.904,1.352,5.957,0.429,7.968c-0.478,1.039-1.194,1.725-2.132,2.037   c-2.021,0.673-14.458,3.773-36.966,9.216l-1.962,0.475c-0.536,0.131-0.865,0.672-0.735,1.208c0.131,0.537,0.673,0.868,1.208,0.735   l1.958-0.475c8.41-2.033,34.003-8.221,37.129-9.263c1.462-0.487,2.609-1.559,3.316-3.099C73.884,44.474,73.736,40.9,72.325,37.449z   "/><path d="M34.885,25.545c0.498,0.24,1.095,0.034,1.336-0.464c0.06-0.124,1.498-3.016,4.104-2.147   c0.507,0.17,1.062-0.098,1.252-0.599c0.042-0.11,1.058-2.704,3.767-2.704c2.676,0,3.562,2.556,3.596,2.66   c0.082,0.254,0.262,0.465,0.5,0.586c0.239,0.121,0.515,0.14,0.769,0.057c2.572-0.857,4.033,2.009,4.104,2.149   c0.173,0.355,0.528,0.562,0.899,0.562c0.146,0,0.295-0.032,0.436-0.1c0.497-0.241,0.704-0.839,0.463-1.336   c-0.702-1.45-2.724-3.82-5.638-3.389c-0.756-1.412-2.408-3.188-5.128-3.188c-2.986,0-4.576,2.02-5.247,3.193   c-2.941-0.462-4.97,1.928-5.675,3.384C34.181,24.707,34.388,25.305,34.885,25.545z"/><path d="M25.543,43.252c0.538,0.125,1.078-0.198,1.209-0.733c0.131-0.536-0.196-1.077-0.731-1.209   c-0.229-0.058-5.61-1.345-8.323,1.338c-1.28,1.265-1.729,3.123-1.337,5.531c-1.413,0.547-3.957,1.911-4.009,4.662   c-0.034,1.756,1.132,3.324,2.901,3.903c0.477,0.155,0.963,0.231,1.448,0.231c1.681,0,3.34-0.91,4.484-2.537   c0.318-0.452,0.209-1.075-0.243-1.394c-0.451-0.317-1.076-0.207-1.393,0.243c-1.162,1.652-2.659,1.886-3.675,1.555   c-0.942-0.308-1.54-1.079-1.523-1.963c0.042-2.193,3.369-3.049,3.4-3.057c0.533-0.131,0.861-0.666,0.736-1.199   c-0.497-2.124-0.291-3.655,0.614-4.552C20.689,42.498,24.29,42.946,25.543,43.252z"/><path d="M31.099,36.672c0-1.434-1.166-2.601-2.6-2.601c-1.434,0-2.601,1.167-2.601,2.601c0,1.434,1.167,2.6,2.601,2.6   C29.933,39.271,31.099,38.105,31.099,36.672z M27.398,36.672c0-0.607,0.494-1.101,1.101-1.101c0.606,0,1.1,0.494,1.1,1.101   c0,0.606-0.493,1.1-1.1,1.1C27.892,37.771,27.398,37.278,27.398,36.672z"/><path d="M24.045,35.284c0-1.434-1.167-2.6-2.6-2.6s-2.6,1.167-2.6,2.6s1.167,2.6,2.6,2.6S24.045,36.718,24.045,35.284z    M20.345,35.284c0-0.606,0.494-1.1,1.1-1.1s1.1,0.494,1.1,1.1s-0.494,1.1-1.1,1.1S20.345,35.891,20.345,35.284z"/><path d="M29.192,27.48c-1.434,0-2.601,1.167-2.601,2.6s1.167,2.6,2.601,2.6s2.601-1.167,2.601-2.6S30.626,27.48,29.192,27.48z    M29.192,31.181c-0.607,0-1.101-0.494-1.101-1.1s0.494-1.1,1.101-1.1s1.101,0.494,1.101,1.1S29.799,31.181,29.192,31.181z"/><path d="M36.94,27.018c-1.434,0-2.601,1.167-2.601,2.6c0,1.434,1.167,2.601,2.601,2.601c1.434,0,2.6-1.167,2.6-2.601   C39.54,28.184,38.374,27.018,36.94,27.018z M36.94,30.718c-0.607,0-1.101-0.494-1.101-1.101c0-0.606,0.494-1.1,1.101-1.1   c0.606,0,1.1,0.494,1.1,1.1C38.04,30.225,37.547,30.718,36.94,30.718z"/><path d="M42.318,25.687c0,1.434,1.167,2.6,2.601,2.6s2.6-1.167,2.6-2.6c0-1.434-1.166-2.601-2.6-2.601S42.318,24.252,42.318,25.687   z M46.019,25.687c0,0.606-0.493,1.1-1.1,1.1s-1.101-0.494-1.101-1.1c0-0.607,0.494-1.101,1.101-1.101S46.019,25.08,46.019,25.687z"/><path d="M63.536,36.5c-1.434,0-2.601,1.166-2.601,2.6c0,1.434,1.167,2.601,2.601,2.601s2.601-1.167,2.601-2.601   C66.137,37.666,64.97,36.5,63.536,36.5z M63.536,40.2c-0.606,0-1.101-0.494-1.101-1.101c0-0.606,0.494-1.1,1.101-1.1   s1.101,0.493,1.101,1.1C64.637,39.707,64.143,40.2,63.536,40.2z"/><path d="M58.623,44.882c0,1.434,1.167,2.6,2.601,2.6s2.6-1.166,2.6-2.6s-1.166-2.601-2.6-2.601S58.623,43.448,58.623,44.882z    M61.224,43.781c0.606,0,1.1,0.494,1.1,1.101s-0.493,1.1-1.1,1.1s-1.101-0.493-1.101-1.1S60.617,43.781,61.224,43.781z"/><path d="M67.352,46.095c1.434,0,2.601-1.167,2.601-2.601s-1.167-2.601-2.601-2.601s-2.6,1.167-2.6,2.601   S65.918,46.095,67.352,46.095z M67.352,42.394c0.606,0,1.101,0.494,1.101,1.101s-0.494,1.101-1.101,1.101s-1.1-0.494-1.1-1.101   S66.745,42.394,67.352,42.394z"/></g><text x="0" y="95" fill="#000000" font-size="5px" font-weight="bold" font-family="'Helvetica Neue', Helvetica, Arial-Unicode, Arial, Sans-serif">Created by Yeong Rong Kim</text><text x="0" y="100" fill="#000000" font-size="5px" font-weight="bold" font-family="'Helvetica Neue', Helvetica, Arial-Unicode, Arial, Sans-serif">from the Noun Project</text></svg>